#define gzip_width 20
#define gzip_height 23
static unsigned char gzip_bits[] = {
  0x00, 0x00, 0x00, 0x00, 0x00, 0x00, 0xc0, 0x03, 0x00, 0x40, 0x06, 0x00,
  0x40, 0x0a, 0x00, 0x40, 0x12, 0x00, 0x40, 0x3e, 0x00, 0x40, 0x3c, 0x00,
  0x40, 0x30, 0x00, 0x41, 0x30, 0x08, 0x43, 0x30, 0x0c, 0x47, 0x30, 0x0e,
  0x4f, 0x30, 0x0f, 0x47, 0x30, 0x0e, 0x43, 0x30, 0x0c, 0x41, 0x30, 0x08,
  0x40, 0x30, 0x00, 0x40, 0x30, 0x00, 0x40, 0x30, 0x00, 0xc0, 0x3f, 0x00,
  0x80, 0x3f, 0x00, 0x00, 0x00, 0x00, 0x00, 0x00, 0x00, };
