#define index2_width 20
#define index2_height 23
static char index2_bits[] = {
   0x00, 0x00, 0x00, 0x00, 0x00, 0x00, 0xff, 0xff, 0x07, 0x01, 0x00, 0x0c,
   0xe1, 0x03, 0x0c, 0x31, 0x06, 0x0c, 0x99, 0x0c, 0x0c, 0xc9, 0x09, 0x0c,
   0x09, 0x0a, 0x0c, 0x09, 0x08, 0x0c, 0x19, 0x0c, 0x0c, 0x31, 0x16, 0x0c,
   0xe1, 0x2f, 0x0c, 0x01, 0x5c, 0x0c, 0x01, 0xb8, 0x0c, 0x01, 0x70, 0x0d,
   0x01, 0xe0, 0x0d, 0x01, 0xe0, 0x0c, 0x01, 0x00, 0x0c, 0xff, 0xff, 0x0f,
   0xfe, 0xff, 0x0f, 0x00, 0x00, 0x00, 0x00, 0x00, 0x00};
