#define unknown.doc_width 20
#define unknown.doc_height 23
static unsigned char unknown.doc_bits[] = {
  0x00, 0x00, 0x00, 0x00, 0x00, 0x00, 0xff, 0x3f, 0x00, 0x01, 0x60, 0x00,
  0x01, 0xa0, 0x00, 0x01, 0x20, 0x01, 0x01, 0x20, 0x02, 0x81, 0xe7, 0x07,
  0xc1, 0xcc, 0x0f, 0xc1, 0x0c, 0x0c, 0x01, 0x06, 0x0c, 0x01, 0x03, 0x0c,
  0x01, 0x03, 0x0c, 0x01, 0x00, 0x0c, 0x01, 0x03, 0x0c, 0x01, 0x03, 0x0c,
  0x01, 0x00, 0x0c, 0x01, 0x00, 0x0c, 0x01, 0x00, 0x0c, 0xff, 0xff, 0x0f,
  0xfe, 0xff, 0x0f, 0x00, 0x00, 0x00, 0x00, 0x00, 0x00, };
